<mxfile host="Electron" modified="2024-06-08T03:37:35.468Z" agent="Mozilla/5.0 (Macintosh; Intel Mac OS X 10_15_7) AppleWebKit/537.36 (KHTML, like Gecko) draw.io/24.5.1 Chrome/124.0.6367.207 Electron/30.0.6 Safari/537.36" etag="CKSUgVAwdvc5rxMZ9HyH" version="24.5.1" type="device">
  <diagram name="Page-1" id="mkAPXSH0K4V1NmXlGoPF">
    <mxGraphModel dx="821" dy="548" grid="1" gridSize="10" guides="1" tooltips="1" connect="1" arrows="1" fold="1" page="1" pageScale="1" pageWidth="850" pageHeight="1100" math="0" shadow="0">
      <root>
        <mxCell id="0" />
        <mxCell id="1" parent="0" />
        <mxCell id="75fUI03RNpnLS7jkSlaE-30" value="Observatory" style="rounded=0;whiteSpace=wrap;html=1;fillColor=none;align=left;verticalAlign=top;dashed=1;dashPattern=1 4;movable=1;resizable=1;rotatable=1;deletable=1;editable=1;locked=0;connectable=1;" parent="1" vertex="1">
          <mxGeometry width="600" height="660" as="geometry" />
        </mxCell>
        <mxCell id="I0pddiudW5bXVlUmopq0-77" value="Telescope&lt;div&gt;Network&lt;/div&gt;&lt;div&gt;Boundary&lt;/div&gt;" style="rounded=0;whiteSpace=wrap;html=1;fillColor=none;align=left;verticalAlign=top;dashed=1;dashPattern=1 2;movable=1;resizable=1;rotatable=1;deletable=1;editable=1;locked=0;connectable=1;strokeColor=#FF00FF;" vertex="1" parent="1">
          <mxGeometry x="30" y="30" width="560" height="480" as="geometry" />
        </mxCell>
        <mxCell id="75fUI03RNpnLS7jkSlaE-4" value="Electronics Rack" style="rounded=0;whiteSpace=wrap;html=1;fillColor=none;align=left;verticalAlign=top;dashed=1;" parent="1" vertex="1">
          <mxGeometry x="350" y="40" width="220" height="370" as="geometry" />
        </mxCell>
        <mxCell id="I0pddiudW5bXVlUmopq0-31" style="edgeStyle=orthogonalEdgeStyle;rounded=0;orthogonalLoop=1;jettySize=auto;html=1;exitX=0.5;exitY=0;exitDx=0;exitDy=0;entryX=0.5;entryY=1;entryDx=0;entryDy=0;strokeColor=#FF00FF;startArrow=classic;startFill=1;shape=flexArrow;" edge="1" parent="1" source="75fUI03RNpnLS7jkSlaE-1" target="I0pddiudW5bXVlUmopq0-29">
          <mxGeometry relative="1" as="geometry" />
        </mxCell>
        <mxCell id="I0pddiudW5bXVlUmopq0-61" style="edgeStyle=orthogonalEdgeStyle;rounded=0;orthogonalLoop=1;jettySize=auto;html=1;exitX=0;exitY=0.5;exitDx=0;exitDy=0;entryX=0.25;entryY=0;entryDx=0;entryDy=0;strokeColor=#FF00FF;startArrow=classic;startFill=1;" edge="1" parent="1" source="75fUI03RNpnLS7jkSlaE-1" target="I0pddiudW5bXVlUmopq0-13">
          <mxGeometry relative="1" as="geometry">
            <Array as="points">
              <mxPoint x="100" y="287" />
              <mxPoint x="100" y="400" />
              <mxPoint x="230" y="400" />
            </Array>
          </mxGeometry>
        </mxCell>
        <mxCell id="75fUI03RNpnLS7jkSlaE-1" value="operator workstation&lt;br&gt;&lt;div&gt;AOC&lt;/div&gt;&lt;div&gt;exao1&lt;br&gt;&lt;/div&gt;" style="rounded=0;whiteSpace=wrap;html=1;fillColor=#ffe6cc;strokeColor=#d79b00;" parent="1" vertex="1">
          <mxGeometry x="140" y="257" width="120" height="60" as="geometry" />
        </mxCell>
        <mxCell id="75fUI03RNpnLS7jkSlaE-39" style="edgeStyle=orthogonalEdgeStyle;rounded=0;orthogonalLoop=1;jettySize=auto;html=1;exitX=1;exitY=0.5;exitDx=0;exitDy=0;strokeColor=#FF00FF;startArrow=classic;startFill=1;entryX=1;entryY=0.5;entryDx=0;entryDy=0;shape=flexArrow;" parent="1" source="75fUI03RNpnLS7jkSlaE-2" edge="1" target="75fUI03RNpnLS7jkSlaE-14">
          <mxGeometry relative="1" as="geometry">
            <mxPoint x="514" y="197" as="targetPoint" />
            <Array as="points">
              <mxPoint x="550" y="370" />
              <mxPoint x="550" y="180" />
            </Array>
          </mxGeometry>
        </mxCell>
        <mxCell id="I0pddiudW5bXVlUmopq0-63" style="edgeStyle=orthogonalEdgeStyle;rounded=0;orthogonalLoop=1;jettySize=auto;html=1;exitX=0;exitY=0.5;exitDx=0;exitDy=0;entryX=0.75;entryY=0;entryDx=0;entryDy=0;strokeColor=#FF00FF;startArrow=classic;startFill=1;" edge="1" parent="1" source="75fUI03RNpnLS7jkSlaE-2" target="I0pddiudW5bXVlUmopq0-13">
          <mxGeometry relative="1" as="geometry" />
        </mxCell>
        <mxCell id="75fUI03RNpnLS7jkSlaE-2" value="&lt;div&gt;instrument control&lt;/div&gt;&lt;div&gt;ICC&lt;/div&gt;&lt;div&gt;exao3&lt;br&gt;&lt;/div&gt;" style="rounded=0;whiteSpace=wrap;html=1;fillColor=#ffe6cc;strokeColor=#d79b00;" parent="1" vertex="1">
          <mxGeometry x="384" y="340" width="130" height="60" as="geometry" />
        </mxCell>
        <mxCell id="75fUI03RNpnLS7jkSlaE-38" style="edgeStyle=orthogonalEdgeStyle;rounded=0;orthogonalLoop=1;jettySize=auto;html=1;exitX=1;exitY=0.5;exitDx=0;exitDy=0;entryX=1;entryY=0.5;entryDx=0;entryDy=0;strokeColor=#FF00FF;startArrow=classic;startFill=1;shape=flexArrow;" parent="1" source="75fUI03RNpnLS7jkSlaE-3" target="75fUI03RNpnLS7jkSlaE-14" edge="1">
          <mxGeometry relative="1" as="geometry">
            <Array as="points">
              <mxPoint x="550" y="280" />
              <mxPoint x="550" y="180" />
            </Array>
          </mxGeometry>
        </mxCell>
        <mxCell id="I0pddiudW5bXVlUmopq0-62" style="edgeStyle=orthogonalEdgeStyle;rounded=0;orthogonalLoop=1;jettySize=auto;html=1;exitX=0;exitY=0.5;exitDx=0;exitDy=0;entryX=0.5;entryY=0;entryDx=0;entryDy=0;strokeColor=#FF00FF;startArrow=classic;startFill=1;" edge="1" parent="1" source="75fUI03RNpnLS7jkSlaE-3" target="I0pddiudW5bXVlUmopq0-13">
          <mxGeometry relative="1" as="geometry">
            <Array as="points">
              <mxPoint x="290" y="280" />
              <mxPoint x="290" y="350" />
              <mxPoint x="260" y="350" />
            </Array>
          </mxGeometry>
        </mxCell>
        <mxCell id="75fUI03RNpnLS7jkSlaE-3" value="&lt;div&gt;real-time control&lt;/div&gt;&lt;div&gt;RTC&lt;/div&gt;&lt;div&gt;exao2&lt;br&gt;&lt;/div&gt;" style="rounded=0;whiteSpace=wrap;html=1;fillColor=#ffe6cc;strokeColor=#d79b00;" parent="1" vertex="1">
          <mxGeometry x="384" y="250" width="130" height="60" as="geometry" />
        </mxCell>
        <mxCell id="75fUI03RNpnLS7jkSlaE-37" style="edgeStyle=orthogonalEdgeStyle;rounded=0;orthogonalLoop=1;jettySize=auto;html=1;startArrow=classic;startFill=1;strokeColor=#FF00FF;shape=flexArrow;exitX=0;exitY=0.5;exitDx=0;exitDy=0;entryX=1;entryY=0.5;entryDx=0;entryDy=0;" parent="1" source="75fUI03RNpnLS7jkSlaE-14" target="I0pddiudW5bXVlUmopq0-29" edge="1">
          <mxGeometry relative="1" as="geometry">
            <Array as="points">
              <mxPoint x="300" y="180" />
              <mxPoint x="300" y="180" />
            </Array>
            <mxPoint x="320" y="200" as="sourcePoint" />
            <mxPoint x="280" y="180" as="targetPoint" />
          </mxGeometry>
        </mxCell>
        <mxCell id="75fUI03RNpnLS7jkSlaE-14" value="MagAO-X instrument network" style="rounded=0;whiteSpace=wrap;html=1;fillColor=#dae8fc;strokeColor=#6c8ebf;" parent="1" vertex="1">
          <mxGeometry x="384" y="150" width="130" height="60" as="geometry" />
        </mxCell>
        <mxCell id="75fUI03RNpnLS7jkSlaE-63" style="edgeStyle=orthogonalEdgeStyle;rounded=0;orthogonalLoop=1;jettySize=auto;html=1;exitX=0.5;exitY=1;exitDx=0;exitDy=0;entryX=0.5;entryY=0;entryDx=0;entryDy=0;startArrow=classic;startFill=1;" parent="1" source="75fUI03RNpnLS7jkSlaE-62" target="75fUI03RNpnLS7jkSlaE-14" edge="1">
          <mxGeometry relative="1" as="geometry" />
        </mxCell>
        <mxCell id="75fUI03RNpnLS7jkSlaE-62" value="&lt;div&gt;instrument equipment&lt;/div&gt;&lt;div&gt;(PDUs, etc.)&lt;br&gt;&lt;/div&gt;" style="rounded=0;whiteSpace=wrap;html=1;fillColor=#f5f5f5;strokeColor=#666666;fontColor=#333333;dashed=1;" parent="1" vertex="1">
          <mxGeometry x="384" y="70" width="130" height="57" as="geometry" />
        </mxCell>
        <mxCell id="75fUI03RNpnLS7jkSlaE-108" value="" style="endArrow=classic;startArrow=classic;html=1;rounded=0;" parent="1" edge="1">
          <mxGeometry width="50" height="50" relative="1" as="geometry">
            <mxPoint x="530" y="870" as="sourcePoint" />
            <mxPoint x="610" y="870" as="targetPoint" />
          </mxGeometry>
        </mxCell>
        <mxCell id="75fUI03RNpnLS7jkSlaE-109" value="" style="shape=flexArrow;endArrow=classic;startArrow=classic;html=1;rounded=0;fillColor=default;" parent="1" edge="1">
          <mxGeometry width="100" height="100" relative="1" as="geometry">
            <mxPoint x="530" y="900" as="sourcePoint" />
            <mxPoint x="610" y="900" as="targetPoint" />
          </mxGeometry>
        </mxCell>
        <mxCell id="75fUI03RNpnLS7jkSlaE-111" value="" style="endArrow=classic;startArrow=classic;html=1;rounded=0;strokeColor=#FF00FF;" parent="1" edge="1">
          <mxGeometry width="50" height="50" relative="1" as="geometry">
            <mxPoint x="530" y="840" as="sourcePoint" />
            <mxPoint x="610" y="840" as="targetPoint" />
          </mxGeometry>
        </mxCell>
        <mxCell id="75fUI03RNpnLS7jkSlaE-112" value="trusted network" style="text;html=1;strokeColor=none;fillColor=none;align=center;verticalAlign=middle;whiteSpace=wrap;rounded=0;" parent="1" vertex="1">
          <mxGeometry x="630" y="831" width="120" height="19" as="geometry" />
        </mxCell>
        <mxCell id="75fUI03RNpnLS7jkSlaE-113" value="ethernet/wifi" style="text;html=1;strokeColor=none;fillColor=none;align=center;verticalAlign=middle;whiteSpace=wrap;rounded=0;" parent="1" vertex="1">
          <mxGeometry x="630" y="861" width="120" height="19" as="geometry" />
        </mxCell>
        <mxCell id="75fUI03RNpnLS7jkSlaE-114" value="10Gbps ethernet" style="text;html=1;strokeColor=none;fillColor=none;align=center;verticalAlign=middle;whiteSpace=wrap;rounded=0;" parent="1" vertex="1">
          <mxGeometry x="630" y="890" width="120" height="19" as="geometry" />
        </mxCell>
        <mxCell id="75fUI03RNpnLS7jkSlaE-115" value="encrypted tunnel" style="text;html=1;strokeColor=none;fillColor=none;align=center;verticalAlign=middle;whiteSpace=wrap;rounded=0;" parent="1" vertex="1">
          <mxGeometry x="630" y="930" width="120" height="19" as="geometry" />
        </mxCell>
        <mxCell id="I0pddiudW5bXVlUmopq0-1" value="10 Gbps fiber to platform" style="text;html=1;align=center;verticalAlign=middle;whiteSpace=wrap;rounded=0;" vertex="1" parent="1">
          <mxGeometry x="265.31" y="200" width="84" height="30" as="geometry" />
        </mxCell>
        <mxCell id="I0pddiudW5bXVlUmopq0-70" style="edgeStyle=orthogonalEdgeStyle;rounded=0;orthogonalLoop=1;jettySize=auto;html=1;exitX=0;exitY=0.75;exitDx=0;exitDy=0;entryX=0.5;entryY=1;entryDx=0;entryDy=0;shape=flexArrow;dashed=1;startArrow=block;strokeColor=#000000;" edge="1" parent="1" source="I0pddiudW5bXVlUmopq0-5" target="75fUI03RNpnLS7jkSlaE-1">
          <mxGeometry relative="1" as="geometry">
            <Array as="points">
              <mxPoint x="230" y="895" />
              <mxPoint x="230" y="470" />
              <mxPoint x="210" y="470" />
              <mxPoint x="210" y="370" />
              <mxPoint x="200" y="370" />
            </Array>
          </mxGeometry>
        </mxCell>
        <mxCell id="I0pddiudW5bXVlUmopq0-71" style="edgeStyle=orthogonalEdgeStyle;rounded=0;orthogonalLoop=1;jettySize=auto;html=1;exitX=0;exitY=0.75;exitDx=0;exitDy=0;strokeColor=#FF00FF;" edge="1" parent="1" source="I0pddiudW5bXVlUmopq0-5">
          <mxGeometry relative="1" as="geometry">
            <mxPoint x="200" y="317" as="targetPoint" />
            <Array as="points">
              <mxPoint x="280" y="895" />
              <mxPoint x="280" y="890" />
              <mxPoint x="230" y="890" />
              <mxPoint x="230" y="470" />
              <mxPoint x="210" y="470" />
              <mxPoint x="210" y="370" />
              <mxPoint x="200" y="370" />
            </Array>
          </mxGeometry>
        </mxCell>
        <mxCell id="I0pddiudW5bXVlUmopq0-5" value="&lt;div&gt;testbed control&lt;/div&gt;&lt;div&gt;TIC&lt;br&gt;&lt;/div&gt;&lt;div&gt;exao0&lt;br&gt;&lt;/div&gt;" style="rounded=0;whiteSpace=wrap;html=1;fillColor=#ffe6cc;strokeColor=#d79b00;" vertex="1" parent="1">
          <mxGeometry x="349.31" y="820" width="120" height="100" as="geometry" />
        </mxCell>
        <mxCell id="I0pddiudW5bXVlUmopq0-9" style="edgeStyle=orthogonalEdgeStyle;rounded=0;orthogonalLoop=1;jettySize=auto;html=1;exitX=1;exitY=0.5;exitDx=0;exitDy=0;entryX=0;entryY=0.5;entryDx=0;entryDy=0;startArrow=classic;startFill=1;" edge="1" parent="1" source="I0pddiudW5bXVlUmopq0-7" target="I0pddiudW5bXVlUmopq0-5">
          <mxGeometry relative="1" as="geometry" />
        </mxCell>
        <mxCell id="I0pddiudW5bXVlUmopq0-69" style="edgeStyle=orthogonalEdgeStyle;rounded=0;orthogonalLoop=1;jettySize=auto;html=1;exitX=0;exitY=0.5;exitDx=0;exitDy=0;entryX=0;entryY=0.25;entryDx=0;entryDy=0;shape=flexArrow;dashed=1;startArrow=block;startFill=0;endArrow=block;endFill=0;" edge="1" parent="1" source="I0pddiudW5bXVlUmopq0-10" target="I0pddiudW5bXVlUmopq0-5">
          <mxGeometry relative="1" as="geometry">
            <Array as="points">
              <mxPoint x="490" y="760" />
              <mxPoint x="260" y="760" />
              <mxPoint x="260" y="845" />
            </Array>
          </mxGeometry>
        </mxCell>
        <mxCell id="I0pddiudW5bXVlUmopq0-72" style="edgeStyle=orthogonalEdgeStyle;rounded=0;orthogonalLoop=1;jettySize=auto;html=1;exitX=0;exitY=0.5;exitDx=0;exitDy=0;entryX=0;entryY=0.25;entryDx=0;entryDy=0;strokeColor=#FF00FF;startArrow=classic;startFill=1;endArrow=none;endFill=0;" edge="1" parent="1" source="I0pddiudW5bXVlUmopq0-10" target="I0pddiudW5bXVlUmopq0-5">
          <mxGeometry relative="1" as="geometry">
            <Array as="points">
              <mxPoint x="490" y="760" />
              <mxPoint x="260" y="760" />
              <mxPoint x="260" y="845" />
            </Array>
          </mxGeometry>
        </mxCell>
        <mxCell id="I0pddiudW5bXVlUmopq0-10" value="remote researcher computer" style="rounded=0;whiteSpace=wrap;html=1;fillColor=#ffe6cc;strokeColor=#d79b00;" vertex="1" parent="1">
          <mxGeometry x="490" y="730" width="90" height="60" as="geometry" />
        </mxCell>
        <mxCell id="I0pddiudW5bXVlUmopq0-68" style="edgeStyle=orthogonalEdgeStyle;rounded=0;orthogonalLoop=1;jettySize=auto;html=1;exitX=0.498;exitY=0.071;exitDx=0;exitDy=0;exitPerimeter=0;entryX=0.5;entryY=1;entryDx=0;entryDy=0;startArrow=classic;startFill=1;" edge="1" parent="1" source="I0pddiudW5bXVlUmopq0-3" target="I0pddiudW5bXVlUmopq0-49">
          <mxGeometry relative="1" as="geometry" />
        </mxCell>
        <mxCell id="I0pddiudW5bXVlUmopq0-4" value="&lt;div&gt;LCO/Carnegie&lt;br&gt;firewall&lt;/div&gt;" style="shape=cube;whiteSpace=wrap;html=1;boundedLbl=1;backgroundOutline=1;darkOpacity=0.05;darkOpacity2=0.1;size=10;fillColor=#ffe6cc;strokeColor=#d79b00;" vertex="1" parent="1">
          <mxGeometry x="200" y="610" width="130" height="70" as="geometry" />
        </mxCell>
        <mxCell id="I0pddiudW5bXVlUmopq0-55" style="edgeStyle=orthogonalEdgeStyle;rounded=0;orthogonalLoop=1;jettySize=auto;html=1;exitX=0.5;exitY=1;exitDx=0;exitDy=0;entryX=0.5;entryY=0;entryDx=0;entryDy=0;startArrow=classic;startFill=1;" edge="1" parent="1" source="I0pddiudW5bXVlUmopq0-13" target="I0pddiudW5bXVlUmopq0-49">
          <mxGeometry relative="1" as="geometry" />
        </mxCell>
        <mxCell id="I0pddiudW5bXVlUmopq0-57" style="edgeStyle=orthogonalEdgeStyle;rounded=0;orthogonalLoop=1;jettySize=auto;html=1;exitX=1;exitY=0.5;exitDx=0;exitDy=0;entryX=0;entryY=0.5;entryDx=0;entryDy=0;strokeColor=#FF00FF;startArrow=classic;startFill=1;" edge="1" parent="1" source="I0pddiudW5bXVlUmopq0-13" target="I0pddiudW5bXVlUmopq0-56">
          <mxGeometry relative="1" as="geometry" />
        </mxCell>
        <mxCell id="I0pddiudW5bXVlUmopq0-13" value="&lt;div&gt;telescopes network&lt;/div&gt;" style="rounded=0;whiteSpace=wrap;html=1;fillColor=#dae8fc;strokeColor=#6c8ebf;" vertex="1" parent="1">
          <mxGeometry x="200" y="450" width="120" height="40" as="geometry" />
        </mxCell>
        <mxCell id="I0pddiudW5bXVlUmopq0-3" value="Internet" style="ellipse;shape=cloud;whiteSpace=wrap;html=1;fillColor=#dae8fc;strokeColor=#6c8ebf;" vertex="1" parent="1">
          <mxGeometry x="174" y="699" width="172" height="91" as="geometry" />
        </mxCell>
        <mxCell id="I0pddiudW5bXVlUmopq0-54" style="edgeStyle=orthogonalEdgeStyle;rounded=0;orthogonalLoop=1;jettySize=auto;html=1;exitX=1;exitY=0.5;exitDx=0;exitDy=0;entryX=0;entryY=0.5;entryDx=0;entryDy=0;strokeColor=#FF00FF;startArrow=classic;startFill=1;" edge="1" parent="1" source="I0pddiudW5bXVlUmopq0-75" target="I0pddiudW5bXVlUmopq0-13">
          <mxGeometry relative="1" as="geometry" />
        </mxCell>
        <mxCell id="I0pddiudW5bXVlUmopq0-78" style="edgeStyle=orthogonalEdgeStyle;rounded=0;orthogonalLoop=1;jettySize=auto;html=1;exitX=1;exitY=0.5;exitDx=0;exitDy=0;entryX=0.75;entryY=1;entryDx=0;entryDy=0;startArrow=classic;startFill=1;" edge="1" parent="1" source="I0pddiudW5bXVlUmopq0-24" target="I0pddiudW5bXVlUmopq0-39">
          <mxGeometry relative="1" as="geometry" />
        </mxCell>
        <mxCell id="I0pddiudW5bXVlUmopq0-80" style="edgeStyle=orthogonalEdgeStyle;rounded=0;orthogonalLoop=1;jettySize=auto;html=1;exitX=0.25;exitY=0;exitDx=0;exitDy=0;entryX=0;entryY=0.5;entryDx=0;entryDy=0;startArrow=classic;startFill=1;strokeColor=#FF00FF;" edge="1" parent="1" source="I0pddiudW5bXVlUmopq0-24" target="I0pddiudW5bXVlUmopq0-75">
          <mxGeometry relative="1" as="geometry" />
        </mxCell>
        <mxCell id="I0pddiudW5bXVlUmopq0-82" style="edgeStyle=orthogonalEdgeStyle;rounded=0;orthogonalLoop=1;jettySize=auto;html=1;exitX=0;exitY=0.5;exitDx=0;exitDy=0;entryX=0;entryY=0.5;entryDx=0;entryDy=0;startArrow=classic;startFill=1;strokeColor=#FF00FF;" edge="1" parent="1" source="I0pddiudW5bXVlUmopq0-24" target="I0pddiudW5bXVlUmopq0-29">
          <mxGeometry relative="1" as="geometry" />
        </mxCell>
        <mxCell id="I0pddiudW5bXVlUmopq0-24" value="onsite&lt;div&gt;researcher computer&lt;/div&gt;" style="rounded=0;whiteSpace=wrap;html=1;fillColor=#ffe6cc;strokeColor=#d79b00;" vertex="1" parent="1">
          <mxGeometry x="30" y="590" width="80" height="60" as="geometry" />
        </mxCell>
        <mxCell id="I0pddiudW5bXVlUmopq0-30" style="edgeStyle=orthogonalEdgeStyle;rounded=0;orthogonalLoop=1;jettySize=auto;html=1;exitX=0.5;exitY=1;exitDx=0;exitDy=0;entryX=0.5;entryY=0;entryDx=0;entryDy=0;strokeColor=#FF00FF;startArrow=classic;startFill=1;shape=flexArrow;" edge="1" parent="1" source="I0pddiudW5bXVlUmopq0-25" target="I0pddiudW5bXVlUmopq0-29">
          <mxGeometry relative="1" as="geometry" />
        </mxCell>
        <mxCell id="I0pddiudW5bXVlUmopq0-64" style="edgeStyle=orthogonalEdgeStyle;rounded=0;orthogonalLoop=1;jettySize=auto;html=1;exitX=0;exitY=0.5;exitDx=0;exitDy=0;entryX=0.25;entryY=0;entryDx=0;entryDy=0;strokeColor=#FF00FF;startArrow=classic;startFill=1;" edge="1" parent="1" source="I0pddiudW5bXVlUmopq0-25" target="I0pddiudW5bXVlUmopq0-13">
          <mxGeometry relative="1" as="geometry">
            <Array as="points">
              <mxPoint x="100" y="70" />
              <mxPoint x="100" y="400" />
              <mxPoint x="230" y="400" />
            </Array>
          </mxGeometry>
        </mxCell>
        <mxCell id="I0pddiudW5bXVlUmopq0-25" value="GO workstation&lt;br&gt;&lt;div&gt;COC&lt;/div&gt;&lt;div&gt;exao4&lt;br&gt;&lt;/div&gt;" style="rounded=0;whiteSpace=wrap;html=1;fillColor=#ffe6cc;strokeColor=#d79b00;" vertex="1" parent="1">
          <mxGeometry x="140" y="40" width="120" height="60" as="geometry" />
        </mxCell>
        <mxCell id="I0pddiudW5bXVlUmopq0-29" value="&lt;div&gt;control room&lt;/div&gt;network switch" style="rounded=0;whiteSpace=wrap;html=1;fillColor=#dae8fc;strokeColor=#6c8ebf;" vertex="1" parent="1">
          <mxGeometry x="155" y="150" width="90" height="60" as="geometry" />
        </mxCell>
        <mxCell id="I0pddiudW5bXVlUmopq0-66" style="edgeStyle=orthogonalEdgeStyle;rounded=0;orthogonalLoop=1;jettySize=auto;html=1;exitX=1;exitY=0.5;exitDx=0;exitDy=0;entryX=0;entryY=0.5;entryDx=0;entryDy=0;startArrow=classic;startFill=1;" edge="1" parent="1" source="I0pddiudW5bXVlUmopq0-39" target="I0pddiudW5bXVlUmopq0-49">
          <mxGeometry relative="1" as="geometry" />
        </mxCell>
        <mxCell id="I0pddiudW5bXVlUmopq0-39" value="LCO-VISITOR WiFi" style="rounded=0;whiteSpace=wrap;html=1;fillColor=#dae8fc;strokeColor=#6c8ebf;" vertex="1" parent="1">
          <mxGeometry x="59" y="530" width="120" height="40" as="geometry" />
        </mxCell>
        <mxCell id="I0pddiudW5bXVlUmopq0-67" style="edgeStyle=orthogonalEdgeStyle;rounded=0;orthogonalLoop=1;jettySize=auto;html=1;exitX=1;exitY=0.5;exitDx=0;exitDy=0;entryX=0;entryY=0.5;entryDx=0;entryDy=0;startArrow=classic;startFill=1;" edge="1" parent="1" source="I0pddiudW5bXVlUmopq0-49" target="I0pddiudW5bXVlUmopq0-50">
          <mxGeometry relative="1" as="geometry" />
        </mxCell>
        <mxCell id="I0pddiudW5bXVlUmopq0-49" value="&lt;div&gt;LCO network&lt;/div&gt;" style="rounded=0;whiteSpace=wrap;html=1;fillColor=#dae8fc;strokeColor=#6c8ebf;" vertex="1" parent="1">
          <mxGeometry x="200" y="530" width="120" height="40" as="geometry" />
        </mxCell>
        <mxCell id="I0pddiudW5bXVlUmopq0-50" value="&lt;div&gt;weather.lco.cl&lt;/div&gt;" style="rounded=0;whiteSpace=wrap;html=1;fillColor=#dae8fc;strokeColor=#6c8ebf;" vertex="1" parent="1">
          <mxGeometry x="360" y="530" width="120" height="40" as="geometry" />
        </mxCell>
        <mxCell id="I0pddiudW5bXVlUmopq0-56" value="&lt;div&gt;Magellan TCS&lt;/div&gt;" style="rounded=0;whiteSpace=wrap;html=1;fillColor=#dae8fc;strokeColor=#6c8ebf;" vertex="1" parent="1">
          <mxGeometry x="360" y="450" width="120" height="40" as="geometry" />
        </mxCell>
        <mxCell id="I0pddiudW5bXVlUmopq0-7" value="&lt;div&gt;UofA network&lt;/div&gt;" style="rounded=0;whiteSpace=wrap;html=1;fillColor=#dae8fc;strokeColor=#6c8ebf;" vertex="1" parent="1">
          <mxGeometry x="149.31" y="835.5" width="140" height="70" as="geometry" />
        </mxCell>
        <mxCell id="I0pddiudW5bXVlUmopq0-74" value="" style="shape=flexArrow;endArrow=classic;startArrow=classic;html=1;rounded=0;fillColor=default;dashed=1;" edge="1" parent="1">
          <mxGeometry width="100" height="100" relative="1" as="geometry">
            <mxPoint x="530" y="939" as="sourcePoint" />
            <mxPoint x="610" y="939" as="targetPoint" />
          </mxGeometry>
        </mxCell>
        <mxCell id="I0pddiudW5bXVlUmopq0-75" value="LCO-STAFF WiFi" style="rounded=0;whiteSpace=wrap;html=1;fillColor=#dae8fc;strokeColor=#6c8ebf;" vertex="1" parent="1">
          <mxGeometry x="90" y="450" width="80" height="40" as="geometry" />
        </mxCell>
      </root>
    </mxGraphModel>
  </diagram>
</mxfile>
